<svg width="512" height="512" viewBox="0 0 512 512" fill="none" xmlns="http://www.w3.org/2000/svg">
<path d="M67.6304 158.729L256.003 267.742L443.096 159.368" stroke="#292D32" stroke-width="40" stroke-linecap="round" stroke-linejoin="round"/>
<path d="M256.005 461.015V267.521" stroke="#292D32" stroke-width="40" stroke-linecap="round" stroke-linejoin="round"/>
<path d="M211.843 52.906L97.9227 116.267C72.1094 130.56 50.9897 166.4 50.9897 195.84V316.373C50.9897 345.813 72.1094 381.653 97.9227 395.946L211.843 459.307C236.163 472.747 276.056 472.747 300.376 459.307L414.296 395.946C440.11 381.653 461.229 345.813 461.229 316.373V195.84C461.229 166.4 440.11 130.56 414.296 116.267L300.376 52.906C275.842 39.2527 236.163 39.2527 211.843 52.906Z" stroke="#292D32" stroke-width="40" stroke-linecap="round" stroke-linejoin="round"/>
<path d="M362.667 282.446V204.367L160.213 87.459" stroke="#292D32" stroke-width="40" stroke-linecap="round" stroke-linejoin="round"/>
</svg>
